<svg width="48" height="48" viewBox="0 0 48 48" fill="none" xmlns="http://www.w3.org/2000/svg">
<rect width="48" height="48" fill="#323238"/>
<path d="M17.2012 35H12.9531V19.1504H17.2012V35ZM12.7041 15.0488C12.7041 14.4141 12.9141 13.8916 13.334 13.4814C13.7637 13.0713 14.3447 12.8662 15.0771 12.8662C15.7998 12.8662 16.376 13.0713 16.8057 13.4814C17.2354 13.8916 17.4502 14.4141 17.4502 15.0488C17.4502 15.6934 17.2305 16.2207 16.791 16.6309C16.3613 17.041 15.79 17.2461 15.0771 17.2461C14.3643 17.2461 13.7881 17.041 13.3486 16.6309C12.9189 16.2207 12.7041 15.6934 12.7041 15.0488ZM24.5986 19.1504L24.7305 20.9814C25.8633 19.5654 27.3818 18.8574 29.2861 18.8574C30.9658 18.8574 32.2158 19.3506 33.0361 20.3369C33.8564 21.3232 34.2764 22.7979 34.2959 24.7607V35H30.0625V24.8633C30.0625 23.9648 29.8672 23.3154 29.4766 22.915C29.0859 22.5049 28.4365 22.2998 27.5283 22.2998C26.3369 22.2998 25.4434 22.8076 24.8477 23.8232V35H20.6143V19.1504H24.5986Z" fill="white"/>
</svg>
